<mxfile host="app.diagrams.net" modified="2021-04-16T09:08:35.812Z" agent="5.0 (Windows NT 10.0; Win64; x64) AppleWebKit/537.36 (KHTML, like Gecko) Chrome/89.0.4389.90 Safari/537.36" etag="S-V3ok9TURwW_L1_wKuX" version="14.6.1" type="github">
  <diagram id="7bpH4e4vA8-0l1ydM8rD" name="Page-1">
    <mxGraphModel dx="850" dy="761" grid="1" gridSize="10" guides="1" tooltips="1" connect="1" arrows="1" fold="1" page="1" pageScale="1" pageWidth="827" pageHeight="1169" math="0" shadow="0">
      <root>
        <mxCell id="0" />
        <mxCell id="1" parent="0" />
        <mxCell id="KxTtvPqpxY7tNyii0L-3-15" style="edgeStyle=orthogonalEdgeStyle;rounded=0;orthogonalLoop=1;jettySize=auto;html=1;exitX=1;exitY=0.25;exitDx=0;exitDy=0;entryX=0.008;entryY=0.313;entryDx=0;entryDy=0;entryPerimeter=0;" edge="1" parent="1" source="KxTtvPqpxY7tNyii0L-3-1" target="KxTtvPqpxY7tNyii0L-3-7">
          <mxGeometry relative="1" as="geometry" />
        </mxCell>
        <mxCell id="KxTtvPqpxY7tNyii0L-3-1" value="读者" style="rounded=0;whiteSpace=wrap;html=1;" vertex="1" parent="1">
          <mxGeometry x="50" y="30" width="120" height="60" as="geometry" />
        </mxCell>
        <mxCell id="KxTtvPqpxY7tNyii0L-3-17" style="edgeStyle=orthogonalEdgeStyle;rounded=0;orthogonalLoop=1;jettySize=auto;html=1;exitX=0;exitY=0.5;exitDx=0;exitDy=0;entryX=1;entryY=0.5;entryDx=0;entryDy=0;startArrow=none;" edge="1" parent="1" source="KxTtvPqpxY7tNyii0L-3-19" target="KxTtvPqpxY7tNyii0L-3-1">
          <mxGeometry relative="1" as="geometry" />
        </mxCell>
        <mxCell id="KxTtvPqpxY7tNyii0L-3-29" style="edgeStyle=orthogonalEdgeStyle;rounded=0;orthogonalLoop=1;jettySize=auto;html=1;startArrow=none;" edge="1" parent="1">
          <mxGeometry relative="1" as="geometry">
            <mxPoint x="600" y="88" as="targetPoint" />
            <mxPoint x="550" y="88" as="sourcePoint" />
            <Array as="points">
              <mxPoint x="550" y="88" />
            </Array>
          </mxGeometry>
        </mxCell>
        <mxCell id="KxTtvPqpxY7tNyii0L-3-31" style="edgeStyle=orthogonalEdgeStyle;rounded=0;orthogonalLoop=1;jettySize=auto;html=1;exitX=0;exitY=1;exitDx=0;exitDy=0;" edge="1" parent="1" source="KxTtvPqpxY7tNyii0L-3-7">
          <mxGeometry relative="1" as="geometry">
            <mxPoint x="180" y="88" as="targetPoint" />
          </mxGeometry>
        </mxCell>
        <mxCell id="KxTtvPqpxY7tNyii0L-3-7" value="图书借阅管理系统" style="ellipse;whiteSpace=wrap;html=1;" vertex="1" parent="1">
          <mxGeometry x="340" y="20" width="120" height="80" as="geometry" />
        </mxCell>
        <mxCell id="KxTtvPqpxY7tNyii0L-3-16" value="借书证" style="text;html=1;strokeColor=none;fillColor=none;align=center;verticalAlign=middle;whiteSpace=wrap;rounded=0;" vertex="1" parent="1">
          <mxGeometry x="230" y="30" width="40" height="20" as="geometry" />
        </mxCell>
        <mxCell id="KxTtvPqpxY7tNyii0L-3-19" value="不予借阅信息" style="text;html=1;strokeColor=none;fillColor=none;align=center;verticalAlign=middle;whiteSpace=wrap;rounded=0;" vertex="1" parent="1">
          <mxGeometry x="210" y="50" width="100" height="20" as="geometry" />
        </mxCell>
        <mxCell id="KxTtvPqpxY7tNyii0L-3-20" value="" style="edgeStyle=orthogonalEdgeStyle;rounded=0;orthogonalLoop=1;jettySize=auto;html=1;exitX=0;exitY=0.5;exitDx=0;exitDy=0;entryX=1;entryY=0.5;entryDx=0;entryDy=0;endArrow=none;" edge="1" parent="1" source="KxTtvPqpxY7tNyii0L-3-7" target="KxTtvPqpxY7tNyii0L-3-19">
          <mxGeometry relative="1" as="geometry">
            <mxPoint x="330" y="60" as="sourcePoint" />
            <mxPoint x="170" y="60" as="targetPoint" />
          </mxGeometry>
        </mxCell>
        <mxCell id="KxTtvPqpxY7tNyii0L-3-26" style="edgeStyle=orthogonalEdgeStyle;rounded=0;orthogonalLoop=1;jettySize=auto;html=1;exitX=0;exitY=0.25;exitDx=0;exitDy=0;entryX=1;entryY=0.313;entryDx=0;entryDy=0;entryPerimeter=0;" edge="1" parent="1" source="KxTtvPqpxY7tNyii0L-3-22" target="KxTtvPqpxY7tNyii0L-3-7">
          <mxGeometry relative="1" as="geometry" />
        </mxCell>
        <mxCell id="KxTtvPqpxY7tNyii0L-3-28" style="edgeStyle=orthogonalEdgeStyle;rounded=0;orthogonalLoop=1;jettySize=auto;html=1;exitX=0;exitY=0.75;exitDx=0;exitDy=0;entryX=0;entryY=0.75;entryDx=0;entryDy=0;entryPerimeter=0;" edge="1" parent="1" source="KxTtvPqpxY7tNyii0L-3-22" target="KxTtvPqpxY7tNyii0L-3-22">
          <mxGeometry relative="1" as="geometry">
            <mxPoint x="570" y="75" as="targetPoint" />
            <Array as="points" />
          </mxGeometry>
        </mxCell>
        <mxCell id="KxTtvPqpxY7tNyii0L-3-22" value="读者" style="rounded=0;whiteSpace=wrap;html=1;" vertex="1" parent="1">
          <mxGeometry x="610" y="30" width="120" height="60" as="geometry" />
        </mxCell>
        <mxCell id="KxTtvPqpxY7tNyii0L-3-27" value="条形码" style="text;html=1;strokeColor=none;fillColor=none;align=center;verticalAlign=middle;whiteSpace=wrap;rounded=0;" vertex="1" parent="1">
          <mxGeometry x="500" y="30" width="40" height="20" as="geometry" />
        </mxCell>
        <mxCell id="KxTtvPqpxY7tNyii0L-3-21" value="借书成功信息" style="text;html=1;strokeColor=none;fillColor=none;align=center;verticalAlign=middle;whiteSpace=wrap;rounded=0;" vertex="1" parent="1">
          <mxGeometry x="210" y="80" width="90" height="20" as="geometry" />
        </mxCell>
        <mxCell id="KxTtvPqpxY7tNyii0L-3-33" value="还书成功信息" style="text;html=1;strokeColor=none;fillColor=none;align=center;verticalAlign=middle;whiteSpace=wrap;rounded=0;" vertex="1" parent="1">
          <mxGeometry x="470" y="80" width="80" height="20" as="geometry" />
        </mxCell>
        <mxCell id="KxTtvPqpxY7tNyii0L-3-37" value="" style="edgeStyle=orthogonalEdgeStyle;rounded=0;orthogonalLoop=1;jettySize=auto;html=1;exitX=1;exitY=1;exitDx=0;exitDy=0;endArrow=none;" edge="1" parent="1" source="KxTtvPqpxY7tNyii0L-3-7" target="KxTtvPqpxY7tNyii0L-3-33">
          <mxGeometry relative="1" as="geometry">
            <mxPoint x="600" y="88" as="targetPoint" />
            <mxPoint x="442.42640687119274" y="88.2842712474619" as="sourcePoint" />
          </mxGeometry>
        </mxCell>
        <mxCell id="KxTtvPqpxY7tNyii0L-3-38" value="顶层图" style="text;html=1;strokeColor=none;fillColor=none;align=center;verticalAlign=middle;whiteSpace=wrap;rounded=0;" vertex="1" parent="1">
          <mxGeometry x="350" y="120" width="40" height="20" as="geometry" />
        </mxCell>
        <mxCell id="KxTtvPqpxY7tNyii0L-3-39" value="借书处理1" style="ellipse;whiteSpace=wrap;html=1;" vertex="1" parent="1">
          <mxGeometry x="125" y="290" width="120" height="80" as="geometry" />
        </mxCell>
        <mxCell id="KxTtvPqpxY7tNyii0L-3-40" value="1层图" style="text;html=1;strokeColor=none;fillColor=none;align=center;verticalAlign=middle;whiteSpace=wrap;rounded=0;" vertex="1" parent="1">
          <mxGeometry x="344" y="470" width="40" height="20" as="geometry" />
        </mxCell>
        <mxCell id="KxTtvPqpxY7tNyii0L-3-41" value="" style="endArrow=classic;html=1;" edge="1" parent="1">
          <mxGeometry relative="1" as="geometry">
            <mxPoint x="25" y="320" as="sourcePoint" />
            <mxPoint x="125" y="320" as="targetPoint" />
          </mxGeometry>
        </mxCell>
        <mxCell id="KxTtvPqpxY7tNyii0L-3-42" value="借书证" style="edgeLabel;resizable=0;html=1;align=center;verticalAlign=middle;" connectable="0" vertex="1" parent="KxTtvPqpxY7tNyii0L-3-41">
          <mxGeometry relative="1" as="geometry" />
        </mxCell>
        <mxCell id="KxTtvPqpxY7tNyii0L-3-45" value="" style="endArrow=classic;html=1;" edge="1" parent="1">
          <mxGeometry relative="1" as="geometry">
            <mxPoint x="10" y="350" as="sourcePoint" />
            <mxPoint x="10" y="350" as="targetPoint" />
            <Array as="points">
              <mxPoint x="130" y="350" />
            </Array>
          </mxGeometry>
        </mxCell>
        <mxCell id="KxTtvPqpxY7tNyii0L-3-46" value="借书成功信息" style="edgeLabel;resizable=0;html=1;align=center;verticalAlign=middle;" connectable="0" vertex="1" parent="KxTtvPqpxY7tNyii0L-3-45">
          <mxGeometry relative="1" as="geometry">
            <mxPoint x="-55" as="offset" />
          </mxGeometry>
        </mxCell>
        <mxCell id="KxTtvPqpxY7tNyii0L-3-47" value="" style="endArrow=classic;html=1;" edge="1" parent="1">
          <mxGeometry width="50" height="50" relative="1" as="geometry">
            <mxPoint x="85" y="420" as="sourcePoint" />
            <mxPoint x="65" y="440" as="targetPoint" />
            <Array as="points">
              <mxPoint x="145" y="360" />
            </Array>
          </mxGeometry>
        </mxCell>
        <mxCell id="KxTtvPqpxY7tNyii0L-3-48" value="不予借阅信息" style="text;html=1;strokeColor=none;fillColor=none;align=center;verticalAlign=middle;whiteSpace=wrap;rounded=0;" vertex="1" parent="1">
          <mxGeometry x="95" y="400" width="70" height="20" as="geometry" />
        </mxCell>
        <mxCell id="KxTtvPqpxY7tNyii0L-3-49" value="读者档案" style="shape=process;whiteSpace=wrap;html=1;backgroundOutline=1;" vertex="1" parent="1">
          <mxGeometry x="304" y="400" width="120" height="60" as="geometry" />
        </mxCell>
        <mxCell id="KxTtvPqpxY7tNyii0L-3-50" value="" style="endArrow=classic;html=1;entryX=0;entryY=0.5;entryDx=0;entryDy=0;exitX=1;exitY=1;exitDx=0;exitDy=0;" edge="1" parent="1" source="KxTtvPqpxY7tNyii0L-3-39" target="KxTtvPqpxY7tNyii0L-3-49">
          <mxGeometry width="50" height="50" relative="1" as="geometry">
            <mxPoint x="215" y="410" as="sourcePoint" />
            <mxPoint x="265" y="360" as="targetPoint" />
          </mxGeometry>
        </mxCell>
        <mxCell id="KxTtvPqpxY7tNyii0L-3-51" value="还书处理2" style="ellipse;whiteSpace=wrap;html=1;" vertex="1" parent="1">
          <mxGeometry x="460" y="300" width="120" height="80" as="geometry" />
        </mxCell>
        <mxCell id="KxTtvPqpxY7tNyii0L-3-52" value="" style="endArrow=classic;html=1;entryX=1;entryY=0.5;entryDx=0;entryDy=0;exitX=0;exitY=1;exitDx=0;exitDy=0;" edge="1" parent="1" source="KxTtvPqpxY7tNyii0L-3-51" target="KxTtvPqpxY7tNyii0L-3-49">
          <mxGeometry width="50" height="50" relative="1" as="geometry">
            <mxPoint x="455" y="420" as="sourcePoint" />
            <mxPoint x="505" y="370" as="targetPoint" />
          </mxGeometry>
        </mxCell>
        <mxCell id="KxTtvPqpxY7tNyii0L-3-53" value="库存记录" style="shape=process;whiteSpace=wrap;html=1;backgroundOutline=1;" vertex="1" parent="1">
          <mxGeometry x="304" y="210" width="120" height="60" as="geometry" />
        </mxCell>
        <mxCell id="KxTtvPqpxY7tNyii0L-3-55" value="" style="endArrow=classic;html=1;exitX=0.992;exitY=0.375;exitDx=0;exitDy=0;exitPerimeter=0;" edge="1" parent="1" source="KxTtvPqpxY7tNyii0L-3-39">
          <mxGeometry width="50" height="50" relative="1" as="geometry">
            <mxPoint x="254" y="310" as="sourcePoint" />
            <mxPoint x="304" y="260" as="targetPoint" />
          </mxGeometry>
        </mxCell>
        <mxCell id="KxTtvPqpxY7tNyii0L-3-56" value="" style="endArrow=classic;html=1;entryX=1.008;entryY=0.9;entryDx=0;entryDy=0;entryPerimeter=0;exitX=0.25;exitY=0.088;exitDx=0;exitDy=0;exitPerimeter=0;" edge="1" parent="1" source="KxTtvPqpxY7tNyii0L-3-51" target="KxTtvPqpxY7tNyii0L-3-53">
          <mxGeometry width="50" height="50" relative="1" as="geometry">
            <mxPoint x="440" y="330" as="sourcePoint" />
            <mxPoint x="490" y="280" as="targetPoint" />
          </mxGeometry>
        </mxCell>
        <mxCell id="KxTtvPqpxY7tNyii0L-3-57" value="" style="endArrow=classic;html=1;exitX=1;exitY=0.625;exitDx=0;exitDy=0;exitPerimeter=0;" edge="1" parent="1" source="KxTtvPqpxY7tNyii0L-3-51">
          <mxGeometry relative="1" as="geometry">
            <mxPoint x="590" y="350" as="sourcePoint" />
            <mxPoint x="700" y="350" as="targetPoint" />
          </mxGeometry>
        </mxCell>
        <mxCell id="KxTtvPqpxY7tNyii0L-3-58" value="还书成功信息" style="edgeLabel;resizable=0;html=1;align=center;verticalAlign=middle;" connectable="0" vertex="1" parent="KxTtvPqpxY7tNyii0L-3-57">
          <mxGeometry relative="1" as="geometry" />
        </mxCell>
        <mxCell id="KxTtvPqpxY7tNyii0L-3-59" value="" style="endArrow=classic;html=1;entryX=0.967;entryY=0.263;entryDx=0;entryDy=0;entryPerimeter=0;" edge="1" parent="1" target="KxTtvPqpxY7tNyii0L-3-51">
          <mxGeometry relative="1" as="geometry">
            <mxPoint x="700" y="321" as="sourcePoint" />
            <mxPoint x="700" y="320" as="targetPoint" />
          </mxGeometry>
        </mxCell>
        <mxCell id="KxTtvPqpxY7tNyii0L-3-60" value="条形码" style="edgeLabel;resizable=0;html=1;align=center;verticalAlign=middle;" connectable="0" vertex="1" parent="KxTtvPqpxY7tNyii0L-3-59">
          <mxGeometry relative="1" as="geometry" />
        </mxCell>
        <mxCell id="KxTtvPqpxY7tNyii0L-3-61" value="查询读者档案1.1" style="ellipse;whiteSpace=wrap;html=1;" vertex="1" parent="1">
          <mxGeometry x="50" y="570" width="120" height="80" as="geometry" />
        </mxCell>
        <mxCell id="KxTtvPqpxY7tNyii0L-3-62" value="办理借阅手续1.3" style="ellipse;whiteSpace=wrap;html=1;" vertex="1" parent="1">
          <mxGeometry x="340" y="570" width="120" height="80" as="geometry" />
        </mxCell>
        <mxCell id="KxTtvPqpxY7tNyii0L-3-63" value="检查借书数量1.2" style="ellipse;whiteSpace=wrap;html=1;" vertex="1" parent="1">
          <mxGeometry x="210" y="700" width="120" height="80" as="geometry" />
        </mxCell>
        <mxCell id="KxTtvPqpxY7tNyii0L-3-64" value="读者档案" style="shape=process;whiteSpace=wrap;html=1;backgroundOutline=1;" vertex="1" parent="1">
          <mxGeometry x="200" y="480" width="120" height="60" as="geometry" />
        </mxCell>
        <mxCell id="KxTtvPqpxY7tNyii0L-3-65" value="" style="endArrow=classic;html=1;" edge="1" parent="1" target="KxTtvPqpxY7tNyii0L-3-64">
          <mxGeometry relative="1" as="geometry">
            <mxPoint x="140" y="580" as="sourcePoint" />
            <mxPoint x="240" y="580" as="targetPoint" />
          </mxGeometry>
        </mxCell>
        <mxCell id="KxTtvPqpxY7tNyii0L-3-67" value="" style="endArrow=classic;html=1;entryX=1;entryY=1;entryDx=0;entryDy=0;exitX=0.333;exitY=0;exitDx=0;exitDy=0;exitPerimeter=0;" edge="1" parent="1" source="KxTtvPqpxY7tNyii0L-3-62" target="KxTtvPqpxY7tNyii0L-3-64">
          <mxGeometry width="50" height="50" relative="1" as="geometry">
            <mxPoint x="320" y="620" as="sourcePoint" />
            <mxPoint x="370" y="570" as="targetPoint" />
          </mxGeometry>
        </mxCell>
        <mxCell id="KxTtvPqpxY7tNyii0L-3-68" value="" style="endArrow=classic;html=1;entryX=0.092;entryY=0.188;entryDx=0;entryDy=0;entryPerimeter=0;" edge="1" parent="1" target="KxTtvPqpxY7tNyii0L-3-63">
          <mxGeometry relative="1" as="geometry">
            <mxPoint x="140" y="640" as="sourcePoint" />
            <mxPoint x="240" y="640" as="targetPoint" />
          </mxGeometry>
        </mxCell>
        <mxCell id="KxTtvPqpxY7tNyii0L-3-69" value="再次借阅信息" style="edgeLabel;resizable=0;html=1;align=center;verticalAlign=middle;" connectable="0" vertex="1" parent="KxTtvPqpxY7tNyii0L-3-68">
          <mxGeometry relative="1" as="geometry" />
        </mxCell>
        <mxCell id="KxTtvPqpxY7tNyii0L-3-70" value="" style="endArrow=classic;html=1;" edge="1" parent="1">
          <mxGeometry relative="1" as="geometry">
            <mxPoint x="380" y="650" as="sourcePoint" />
            <mxPoint x="380" y="650" as="targetPoint" />
            <Array as="points">
              <mxPoint x="310" y="710" />
            </Array>
          </mxGeometry>
        </mxCell>
        <mxCell id="KxTtvPqpxY7tNyii0L-3-71" value="借阅信息" style="edgeLabel;resizable=0;html=1;align=center;verticalAlign=middle;" connectable="0" vertex="1" parent="KxTtvPqpxY7tNyii0L-3-70">
          <mxGeometry relative="1" as="geometry">
            <mxPoint x="34" y="-30" as="offset" />
          </mxGeometry>
        </mxCell>
        <mxCell id="KxTtvPqpxY7tNyii0L-3-72" value="" style="endArrow=classic;html=1;entryX=0;entryY=0.5;entryDx=0;entryDy=0;" edge="1" parent="1" target="KxTtvPqpxY7tNyii0L-3-62">
          <mxGeometry relative="1" as="geometry">
            <mxPoint x="170" y="609.5" as="sourcePoint" />
            <mxPoint x="270" y="609.5" as="targetPoint" />
          </mxGeometry>
        </mxCell>
        <mxCell id="KxTtvPqpxY7tNyii0L-3-73" value="首次借阅信息" style="edgeLabel;resizable=0;html=1;align=center;verticalAlign=middle;" connectable="0" vertex="1" parent="KxTtvPqpxY7tNyii0L-3-72">
          <mxGeometry relative="1" as="geometry" />
        </mxCell>
        <mxCell id="KxTtvPqpxY7tNyii0L-3-74" value="" style="endArrow=classic;html=1;" edge="1" parent="1">
          <mxGeometry relative="1" as="geometry">
            <mxPoint x="330" y="740" as="sourcePoint" />
            <mxPoint x="430" y="740" as="targetPoint" />
          </mxGeometry>
        </mxCell>
        <mxCell id="KxTtvPqpxY7tNyii0L-3-75" value="不予借阅信息" style="edgeLabel;resizable=0;html=1;align=center;verticalAlign=middle;" connectable="0" vertex="1" parent="KxTtvPqpxY7tNyii0L-3-74">
          <mxGeometry relative="1" as="geometry" />
        </mxCell>
        <mxCell id="KxTtvPqpxY7tNyii0L-3-76" value="" style="endArrow=classic;html=1;" edge="1" parent="1">
          <mxGeometry relative="1" as="geometry">
            <mxPoint x="460" y="610" as="sourcePoint" />
            <mxPoint x="560" y="610" as="targetPoint" />
          </mxGeometry>
        </mxCell>
        <mxCell id="KxTtvPqpxY7tNyii0L-3-77" value="借书成功信息" style="edgeLabel;resizable=0;html=1;align=center;verticalAlign=middle;" connectable="0" vertex="1" parent="KxTtvPqpxY7tNyii0L-3-76">
          <mxGeometry relative="1" as="geometry" />
        </mxCell>
        <mxCell id="KxTtvPqpxY7tNyii0L-3-78" value="库存记录" style="shape=process;whiteSpace=wrap;html=1;backgroundOutline=1;" vertex="1" parent="1">
          <mxGeometry x="490" y="500" width="120" height="60" as="geometry" />
        </mxCell>
        <mxCell id="KxTtvPqpxY7tNyii0L-3-79" value="" style="endArrow=classic;html=1;" edge="1" parent="1">
          <mxGeometry width="50" height="50" relative="1" as="geometry">
            <mxPoint x="440" y="580" as="sourcePoint" />
            <mxPoint x="490" y="530" as="targetPoint" />
          </mxGeometry>
        </mxCell>
        <mxCell id="KxTtvPqpxY7tNyii0L-3-80" value="2层图" style="text;html=1;strokeColor=none;fillColor=none;align=center;verticalAlign=middle;whiteSpace=wrap;rounded=0;" vertex="1" parent="1">
          <mxGeometry x="250" y="800" width="40" height="20" as="geometry" />
        </mxCell>
        <mxCell id="KxTtvPqpxY7tNyii0L-3-81" value="检查借阅时间2.1" style="ellipse;whiteSpace=wrap;html=1;" vertex="1" parent="1">
          <mxGeometry x="84" y="919" width="120" height="80" as="geometry" />
        </mxCell>
        <mxCell id="KxTtvPqpxY7tNyii0L-3-82" value="办理还书手续2.3" style="ellipse;whiteSpace=wrap;html=1;" vertex="1" parent="1">
          <mxGeometry x="374" y="919" width="120" height="80" as="geometry" />
        </mxCell>
        <mxCell id="KxTtvPqpxY7tNyii0L-3-83" value="罚款处理2.2" style="ellipse;whiteSpace=wrap;html=1;" vertex="1" parent="1">
          <mxGeometry x="244" y="1049" width="120" height="80" as="geometry" />
        </mxCell>
        <mxCell id="KxTtvPqpxY7tNyii0L-3-84" value="读者档案" style="shape=process;whiteSpace=wrap;html=1;backgroundOutline=1;" vertex="1" parent="1">
          <mxGeometry x="234" y="829" width="120" height="60" as="geometry" />
        </mxCell>
        <mxCell id="KxTtvPqpxY7tNyii0L-3-85" value="" style="endArrow=classic;html=1;" edge="1" parent="1" target="KxTtvPqpxY7tNyii0L-3-84">
          <mxGeometry relative="1" as="geometry">
            <mxPoint x="174" y="929" as="sourcePoint" />
            <mxPoint x="274" y="929" as="targetPoint" />
          </mxGeometry>
        </mxCell>
        <mxCell id="KxTtvPqpxY7tNyii0L-3-86" value="" style="endArrow=classic;html=1;entryX=1;entryY=1;entryDx=0;entryDy=0;exitX=0.333;exitY=0;exitDx=0;exitDy=0;exitPerimeter=0;" edge="1" parent="1" source="KxTtvPqpxY7tNyii0L-3-82" target="KxTtvPqpxY7tNyii0L-3-84">
          <mxGeometry width="50" height="50" relative="1" as="geometry">
            <mxPoint x="354" y="969" as="sourcePoint" />
            <mxPoint x="404" y="919" as="targetPoint" />
          </mxGeometry>
        </mxCell>
        <mxCell id="KxTtvPqpxY7tNyii0L-3-87" value="" style="endArrow=classic;html=1;entryX=0.092;entryY=0.188;entryDx=0;entryDy=0;entryPerimeter=0;" edge="1" parent="1" target="KxTtvPqpxY7tNyii0L-3-83">
          <mxGeometry relative="1" as="geometry">
            <mxPoint x="174" y="989" as="sourcePoint" />
            <mxPoint x="274" y="989" as="targetPoint" />
          </mxGeometry>
        </mxCell>
        <mxCell id="KxTtvPqpxY7tNyii0L-3-88" value="超期信息" style="edgeLabel;resizable=0;html=1;align=center;verticalAlign=middle;" connectable="0" vertex="1" parent="KxTtvPqpxY7tNyii0L-3-87">
          <mxGeometry relative="1" as="geometry" />
        </mxCell>
        <mxCell id="KxTtvPqpxY7tNyii0L-3-89" value="" style="endArrow=classic;html=1;" edge="1" parent="1">
          <mxGeometry relative="1" as="geometry">
            <mxPoint x="414" y="999" as="sourcePoint" />
            <mxPoint x="414" y="999" as="targetPoint" />
            <Array as="points">
              <mxPoint x="344" y="1059" />
            </Array>
          </mxGeometry>
        </mxCell>
        <mxCell id="KxTtvPqpxY7tNyii0L-3-90" value="罚款单据" style="edgeLabel;resizable=0;html=1;align=center;verticalAlign=middle;" connectable="0" vertex="1" parent="KxTtvPqpxY7tNyii0L-3-89">
          <mxGeometry relative="1" as="geometry">
            <mxPoint x="34" y="-30" as="offset" />
          </mxGeometry>
        </mxCell>
        <mxCell id="KxTtvPqpxY7tNyii0L-3-91" value="" style="endArrow=classic;html=1;entryX=0;entryY=0.5;entryDx=0;entryDy=0;" edge="1" parent="1" target="KxTtvPqpxY7tNyii0L-3-82">
          <mxGeometry relative="1" as="geometry">
            <mxPoint x="204" y="958.5" as="sourcePoint" />
            <mxPoint x="304" y="958.5" as="targetPoint" />
          </mxGeometry>
        </mxCell>
        <mxCell id="KxTtvPqpxY7tNyii0L-3-92" value="未超期信息" style="edgeLabel;resizable=0;html=1;align=center;verticalAlign=middle;" connectable="0" vertex="1" parent="KxTtvPqpxY7tNyii0L-3-91">
          <mxGeometry relative="1" as="geometry">
            <mxPoint x="5" as="offset" />
          </mxGeometry>
        </mxCell>
        <mxCell id="KxTtvPqpxY7tNyii0L-3-95" value="" style="endArrow=classic;html=1;" edge="1" parent="1">
          <mxGeometry relative="1" as="geometry">
            <mxPoint x="494" y="959" as="sourcePoint" />
            <mxPoint x="594" y="959" as="targetPoint" />
          </mxGeometry>
        </mxCell>
        <mxCell id="KxTtvPqpxY7tNyii0L-3-96" value="还书成功信息" style="edgeLabel;resizable=0;html=1;align=center;verticalAlign=middle;" connectable="0" vertex="1" parent="KxTtvPqpxY7tNyii0L-3-95">
          <mxGeometry relative="1" as="geometry" />
        </mxCell>
        <mxCell id="KxTtvPqpxY7tNyii0L-3-97" value="库存记录" style="shape=process;whiteSpace=wrap;html=1;backgroundOutline=1;" vertex="1" parent="1">
          <mxGeometry x="524" y="849" width="120" height="60" as="geometry" />
        </mxCell>
        <mxCell id="KxTtvPqpxY7tNyii0L-3-98" value="" style="endArrow=classic;html=1;" edge="1" parent="1">
          <mxGeometry width="50" height="50" relative="1" as="geometry">
            <mxPoint x="474" y="929" as="sourcePoint" />
            <mxPoint x="524" y="879" as="targetPoint" />
          </mxGeometry>
        </mxCell>
        <mxCell id="KxTtvPqpxY7tNyii0L-3-99" value="2层图" style="text;html=1;strokeColor=none;fillColor=none;align=center;verticalAlign=middle;whiteSpace=wrap;rounded=0;" vertex="1" parent="1">
          <mxGeometry x="284" y="1149" width="40" height="20" as="geometry" />
        </mxCell>
      </root>
    </mxGraphModel>
  </diagram>
</mxfile>
